<svg width="214" height="32" viewBox="0 0 214 32" fill="none" xmlns="http://www.w3.org/2000/svg">
<path d="M60.9151 23.6064H49.1028L45.8904 28.9994H37.6084L55.4049 1.2478H63.1348L69.8329 28.9994H62.0249L60.9151 23.6064ZM59.7272 17.8229L57.8644 8.82147L52.5494 17.8229H59.7272Z" fill="#0077FF"/>
<path d="M82.4377 29.5573C80.1399 29.5573 77.9593 29.2798 75.8957 28.7263C73.835 28.1686 72.1563 27.4533 70.8596 26.5791L73.9549 20.712C75.3562 21.6127 76.8494 22.2945 78.4333 22.7588C80.0172 23.2203 81.6025 23.4503 83.1906 23.4503C84.6964 23.4503 85.8648 23.2328 86.6986 22.7978C87.531 22.36 87.9478 21.7577 87.9478 20.9909C87.9478 20.33 87.57 19.8141 86.8157 19.446C86.0642 19.0751 84.8944 18.6791 83.3077 18.2581C81.5119 17.7826 80.0186 17.3016 78.8293 16.8136C77.6386 16.3228 76.6152 15.5755 75.7563 14.5716C74.8974 13.5677 74.468 12.246 74.468 10.6063C74.468 8.62506 75.009 6.88918 76.0909 5.3973C77.1757 3.90264 78.7233 2.74678 80.7311 1.92833C82.7388 1.10714 85.0896 0.695801 87.7861 0.695801C89.7715 0.695801 91.6231 0.900756 93.3409 1.3093C95.0586 1.7192 96.5379 2.30618 97.7802 3.07166L94.9248 8.89972C93.8428 8.21233 92.6465 7.69228 91.3387 7.33813C90.0295 6.9812 88.6868 6.80273 87.3121 6.80273C85.7532 6.80273 84.5319 7.05369 83.6479 7.55565C82.7625 8.05757 82.3205 8.70451 82.3205 9.49648C82.3205 10.1853 82.7026 10.715 83.4694 11.0859C84.2349 11.454 85.4228 11.8486 87.0332 12.2683C88.8318 12.7186 90.3195 13.1815 91.4949 13.657C92.6688 14.1338 93.6783 14.8602 94.5232 15.8376C95.3709 16.8164 95.7948 18.0991 95.7948 19.6858C95.7948 21.642 95.2454 23.3667 94.1496 24.8613C93.0523 26.3532 91.4921 27.5091 89.4704 28.3303C87.4515 29.1474 85.1063 29.5573 82.4377 29.5573Z" fill="#0077FF"/>
<path d="M107.913 7.47184H99.3911L100.663 1.2478H125.514L124.248 7.47184H115.765L111.443 28.9994H103.596L107.913 7.47184Z" fill="#FFC107"/>
<path d="M151.481 10.0875C151.481 12.6279 150.806 14.8155 149.457 16.6517C148.11 18.4894 146.222 19.8293 143.79 20.6728L148.503 28.9994H140.299L136.178 21.6265H132.212L130.745 28.9994H122.898L128.448 1.2478H140.299C143.842 1.2478 146.591 2.02859 148.547 3.59018C150.502 5.14899 151.481 7.31428 151.481 10.0875ZM143.55 10.846C143.55 9.70824 143.167 8.85495 142.402 8.28608C141.635 7.71723 140.564 7.43279 139.189 7.43279H135.068L133.4 15.5586H138.079C139.822 15.5586 141.17 15.1501 142.123 14.3316C143.074 13.5146 143.55 12.3518 143.55 10.846Z" fill="#FFC107"/>
<path d="M172.207 23.6064H160.394L157.182 28.9994H148.9L166.696 1.2478H174.426L181.124 28.9994H173.316L172.207 23.6064ZM171.019 17.8229L169.156 8.82147L163.841 17.8229H171.019Z" fill="#FFC107"/>
<path d="M198.526 29.5573C195.726 29.5573 193.268 29.047 191.153 28.0291C189.036 27.0113 187.411 25.578 186.273 23.7292C185.138 21.8776 184.572 19.7499 184.572 17.3434C184.572 14.1728 185.304 11.3188 186.769 8.78261C188.237 6.24781 190.294 4.26515 192.937 2.83741C195.581 1.40968 198.593 0.695801 201.972 0.695801C204.538 0.695801 206.81 1.15175 208.793 2.06218C210.774 2.97405 212.254 4.26236 213.232 5.92713L207.566 10.4446C206.216 8.28065 204.181 7.19871 201.459 7.19871C199.688 7.19871 198.13 7.61558 196.78 8.44798C195.433 9.27757 194.383 10.4264 193.629 11.8946C192.877 13.36 192.502 15.0052 192.502 16.8303C192.502 18.7084 193.11 20.2156 194.326 21.3534C195.542 22.4883 197.193 23.0544 199.279 23.0544C201.922 23.0544 204.182 21.9836 206.06 19.842L210.695 24.3985C209.189 26.225 207.432 27.5411 205.425 28.347C203.417 29.1529 201.116 29.5573 198.526 29.5573Z" fill="#FFC107"/>
<path fill-rule="evenodd" clip-rule="evenodd" d="M19.5407 0.994059V1.98812L8.60685 2.01025V4.99422L16.8359 5.00385L25.0663 5.01492L25.0537 5.47929L25.0412 5.94509L22.3307 5.92688C20.0441 5.91297 19.6132 5.92011 19.5812 5.97008C19.5603 6.00363 19.5421 6.7357 19.5421 7.59877L19.5407 9.16428L11.2811 9.18677L11.2699 10.6898L11.2574 12.1914L22.194 12.2136L22.2066 12.6572C22.2136 12.8996 22.2136 13.1034 22.2066 13.1088C22.1996 13.1145 21.6029 13.1284 20.8792 13.1409L19.563 13.1644L19.5407 16.4718L11.8513 16.4829L4.16331 16.4928V19.4333L13.8912 19.454L23.6176 19.4765V20.3841L21.5903 20.4063L19.563 20.4273L19.5519 26.1968C19.5463 29.3703 19.5561 31.9816 19.5756 31.9998C19.5937 32.0195 21.384 30.2541 23.5549 28.0778L27.5007 24.1209L27.5216 22.3391L27.5439 20.5569L29.2965 20.5458L31.0505 20.5348L34.7021 16.8705L38.3549 13.2076L32.9495 13.1855L27.5439 13.1644V7.50097L35.8036 7.48989L44.0645 7.47883L51.5269 0H19.5407V0.994059ZM0.0292793 9.19354C0.0139454 9.21032 0 9.891 0 10.708V12.1914H5.69559L5.68445 10.6898L5.67328 9.18677L2.86523 9.1757C1.32177 9.16999 0.0460125 9.17819 0.0292793 9.19354Z" fill="#0077FF"/>
</svg>
